<svg xmlns="http://www.w3.org/2000/svg" width="126" height="36" viewBox="0 0 126 36">
    <defs>
        <style>
            .cls-1 {
            fill-rule: evenodd;
            }
        </style>
    </defs>
    <path id="logo_header" data-name="ico копия" class="cls-1"
          d="M1312,837V801h126v36H1312Zm124-34H1314v32h122V803Zm-94.72,10.688h-9.36v4.019h8.3v2.428h-8.31v4.138h9.49v2.433H1329V811.26h12.28v2.428Zm14.52-2.538,7.28,15.565h-3.07l-1.69-3.734h-7.83l-1.7,3.734h-2.98l7.28-15.565h2.71Zm1.47,9.426-2.88-6.18-2.84,6.18h5.72Zm13.43,1.964,8.38-11.28h2.72v15.455h-2.87V815.454l-8.37,11.261h-2.76V811.26h2.86ZM1396.24,811h0.02a8.988,8.988,0,0,1,6.48,2.4l-1.87,2.01a6.786,6.786,0,0,0-4.64-1.922,5.32,5.32,0,0,0-5.33,4.179h-3.09A8.174,8.174,0,0,1,1396.24,811Zm-0.02,13.487h0.01a6.706,6.706,0,0,0,4.76-2.009l1.87,1.765a8.843,8.843,0,0,1-6.72,2.759,8.118,8.118,0,0,1-8.31-6.571h3.1A5.348,5.348,0,0,0,1396.22,824.485ZM1421,813.776h-5.26v12.939h-2.96V813.776h-5.23V811.26H1421v2.516Z"
          transform="translate(-1312 -801)"/>
</svg>
