<svg id="logo" data-name="Слой 1" xmlns="http://www.w3.org/2000/svg" viewBox="0 0 240 80" preserveAspectRatio="xMinYMin meet">
    <defs>
        <style>.cls-1{fill-rule:evenodd;}</style>
    </defs>
    <title>лого</title>
    <path class="cls-1"
          d="M0,80V0H240V80ZM234,6H6V74H234ZM51.23,28.34h-19v8.74H49.07v5.28H32.22v9H51.47v5.29H26.32V23.06H51.23Zm29.43-5.52L95.44,56.67H89.2l-3.41-8.12H69.9l-3.45,8.12H60.4L75.18,22.82Zm3,20.5L77.82,29.88,72.06,43.32Zm27.22,4.27,17-24.53h5.52V56.67h-5.81V32.18L110.61,56.67H105V23.06h5.81Zm51.84-25.1a17.53,17.53,0,0,1,13.15,5.23l-3.79,4.37c-2.69-2.5-5.57-4.18-9.41-4.18A11,11,0,0,0,151.85,37h-6.27A16.91,16.91,0,0,1,162.69,22.49Zm-.05,29.33c4.13,0,6.77-1.68,9.65-4.37l3.79,3.84c-3.5,3.65-7.34,6-13.63,6A16.79,16.79,0,0,1,145.62,43h6.3A11,11,0,0,0,162.64,51.82ZM212.9,28.53H202.24V56.67h-6V28.53H185.63V23.06H212.9Z"/>
</svg>